<svg width="62" height="62" viewBox="0 0 62 62" fill="none" xmlns="http://www.w3.org/2000/svg">
<path d="M36.5703 47.4688C38.5767 47.4688 40.2031 45.8423 40.2031 43.8359C40.2031 41.8296 38.5767 40.2031 36.5703 40.2031C34.564 40.2031 32.9375 41.8296 32.9375 43.8359C32.9375 45.8423 34.564 47.4688 36.5703 47.4688Z" fill="#828282"/>
<path d="M45.6523 47.4688C47.6587 47.4688 49.2852 45.8423 49.2852 43.8359C49.2852 41.8296 47.6587 40.2031 45.6523 40.2031C43.646 40.2031 42.0195 41.8296 42.0195 43.8359C42.0195 45.8423 43.646 47.4688 45.6523 47.4688Z" fill="#828282"/>
<path d="M54.7344 47.4688C56.7407 47.4688 58.3672 45.8423 58.3672 43.8359C58.3672 41.8296 56.7407 40.2031 54.7344 40.2031C52.728 40.2031 51.1016 41.8296 51.1016 43.8359C51.1016 45.8423 52.728 47.4688 54.7344 47.4688Z" fill="#828282"/>
<path d="M41.1113 40.2031C43.1177 40.2031 44.7441 38.5767 44.7441 36.5703C44.7441 34.564 43.1177 32.9375 41.1113 32.9375C39.105 32.9375 37.4785 34.564 37.4785 36.5703C37.4785 38.5767 39.105 40.2031 41.1113 40.2031Z" fill="#828282"/>
<path d="M50.1934 40.2031C52.1997 40.2031 53.8262 38.5767 53.8262 36.5703C53.8262 34.564 52.1997 32.9375 50.1934 32.9375C48.187 32.9375 46.5605 34.564 46.5605 36.5703C46.5605 38.5767 48.187 40.2031 50.1934 40.2031Z" fill="#828282"/>
<path d="M3.78733 36.2838C4.51486 43.9654 10.7637 50.0581 18.4062 50.918V62H22.0391V43.6524C29.6817 42.7925 35.6883 36.6998 36.4158 29.0182C38.6049 28.3106 40.2031 26.2772 40.2031 23.8555C40.2031 20.8506 37.7587 18.4062 34.7539 18.4062C31.7491 18.4062 29.3047 20.8506 29.3047 23.8555C29.3047 26.167 30.757 28.1344 32.7923 28.9248C32.1373 34.6488 27.7113 39.1971 22.0391 40.0194V21.8554C27.6806 21.0374 32.0898 16.2923 32.7827 10.6118C34.9719 9.90438 36.5703 7.87097 36.5703 5.44922C36.5703 2.4444 34.1259 0 31.1211 0C28.1163 0 25.6719 2.4444 25.6719 5.44922C25.6719 7.76078 27.1242 9.72819 29.1595 10.5186C28.5606 14.2461 25.7151 17.4732 22.0391 18.2224V0H18.4062V25.4881C14.7302 24.7388 11.8847 21.7539 11.2858 18.0264C13.3212 17.236 14.7734 15.2686 14.7734 12.957C14.7734 9.95221 12.329 7.50781 9.32422 7.50781C6.3194 7.50781 3.875 9.95221 3.875 12.957C3.875 15.3788 5.47344 17.4122 7.66257 18.1197C8.35547 23.8003 12.7647 28.3031 18.4062 29.1211V47.2852C12.734 46.4628 8.06581 41.9144 7.41082 36.1906C9.44616 35.4001 10.8984 33.4327 10.8984 31.1211C10.8984 28.1163 8.45404 25.6719 5.44922 25.6719C2.4444 25.6719 0 28.1163 0 31.1211C0 33.5428 1.5982 35.5763 3.78733 36.2838Z" fill="url(#paint0_linear_70_669)"/>
<path d="M40.2031 62H51.1016C57.1206 62 62 57.1206 62 51.1016H29.3047C29.3047 57.1206 34.184 62 40.2031 62Z" fill="url(#paint1_linear_70_669)"/>
<defs>
<linearGradient id="paint0_linear_70_669" x1="0" y1="0" x2="43.4312" y2="2.35034" gradientUnits="userSpaceOnUse">
<stop stop-color="#48B760"/>
<stop offset="1" stop-color="#6BB748"/>
</linearGradient>
<linearGradient id="paint1_linear_70_669" x1="29.3047" y1="51.1016" x2="62.6391" y2="59.4475" gradientUnits="userSpaceOnUse">
<stop stop-color="#48B760"/>
<stop offset="1" stop-color="#6BB748"/>
</linearGradient>
</defs>
</svg>
