<svg width="62" height="62" viewBox="0 0 62 62" fill="none" xmlns="http://www.w3.org/2000/svg">
<g clip-path="url(#clip0_70_886)">
<path d="M57.2788 12.6325C61.4248 8.48792 61.6769 2.20476 61.6854 1.93939L61.7493 0L59.8094 0.0633851C59.5441 0.0723724 53.2581 0.324493 49.112 4.46912C45.7285 7.85123 44.9386 12.6581 44.7574 14.4556L42.4713 16.7379C42.555 16.1561 42.6037 15.5587 42.6037 14.9461C42.6037 9.08534 38.3375 4.46391 38.1559 4.26997L36.8291 2.85374L35.5022 4.26997C35.3206 4.46391 31.0544 9.08534 31.0544 14.9461C31.0544 19.2307 33.3329 22.8508 34.6304 24.565L32.1263 27.0645C32.2034 26.5049 32.2483 25.9301 32.2483 25.3422C32.2483 19.481 27.9816 14.8595 27.8 14.6656L26.4736 13.2494L25.1468 14.6656C24.9652 14.8595 20.6985 19.481 20.6985 25.3422C20.6985 29.5984 22.9477 33.1996 24.2495 34.9275L21.6422 37.5301C21.7184 36.9757 21.7619 36.4066 21.7619 35.8248C21.7619 29.9636 17.4952 25.3422 17.3136 25.1482L15.9867 23.732L14.6604 25.1482C14.4787 25.3422 10.2121 29.9636 10.2121 35.8248C10.2121 40.074 12.4542 43.6704 13.7564 45.4016L0.242188 58.8927L2.8107 61.4641L16.6083 47.6906C17.9947 48.7398 20.6313 50.4303 23.8597 51.0387C23.5575 49.6962 23.3971 48.3003 23.3971 46.8675C23.3971 44.3761 23.8805 41.9954 24.757 39.8134C24.6577 39.8257 24.5589 39.8384 24.4605 39.8521L24.9401 39.3734C26.8653 34.9105 30.4546 31.3273 34.9223 29.4097C34.9218 29.4097 34.9218 29.4097 34.9214 29.4097L37.4213 26.914C37.9099 27.2773 38.5357 27.7054 39.2741 28.1363C40.2887 27.9679 41.3299 27.879 42.3913 27.879C45.3851 27.879 48.2185 28.5758 50.7397 29.8146C54.6786 28.6425 57.4495 26.0881 57.5985 25.9486L59.0152 24.6227L57.5985 23.2964C57.4051 23.1147 52.7817 18.8499 46.9186 18.8499C46.4035 18.8499 45.8988 18.8845 45.4054 18.9445L47.377 16.9763C49.2402 16.7791 53.9492 15.9607 57.2788 12.6325Z" fill="url(#paint0_linear_70_886)"/>
<path d="M42.6037 43.9367C40.9869 43.9367 39.6714 45.2512 39.6714 46.8676C39.6714 48.4839 40.9869 49.7989 42.6037 49.7989C44.2204 49.7989 45.5359 48.4839 45.5359 46.8676C45.5359 45.2512 44.2204 43.9367 42.6037 43.9367Z" fill="#828282"/>
<path d="M42.3913 31.7356C34.0444 31.7356 27.2537 38.5239 27.2537 46.8676C27.2537 55.2117 34.0444 62 42.3913 62C50.7383 62 57.529 55.2117 57.529 46.8676C57.529 38.5239 50.7383 31.7356 42.3913 31.7356ZM49.7667 42.2769L48.35 43.6931C48.586 44.1189 48.7757 44.5739 48.9134 45.0507H50.9157V48.6845H48.9134C48.7757 49.1613 48.586 49.6163 48.35 50.042L49.7667 51.4583L47.1963 54.0277L45.7796 52.6115C45.3534 52.848 44.8983 53.0372 44.4215 53.1749V55.1767H40.7864V53.1749C40.3091 53.0372 39.854 52.848 39.4283 52.6115L38.0111 54.0277L35.4407 51.4583L36.8579 50.042C36.6214 49.6163 36.4317 49.1613 36.2941 48.6845H34.2918V45.0507H36.2941C36.4317 44.5739 36.6214 44.1189 36.8579 43.6931L35.4407 42.2769L38.0111 39.7074L39.4283 41.1237C39.854 40.8876 40.3091 40.698 40.7864 40.5603V38.5585H44.4215V40.5603C44.8983 40.698 45.3534 40.8876 45.7796 41.1237L47.1963 39.7074L49.7667 42.2769Z" fill="#828282"/>
</g>
<defs>
<linearGradient id="paint0_linear_70_886" x1="0.242188" y1="0" x2="66.4209" y2="5.52693" gradientUnits="userSpaceOnUse">
<stop stop-color="#48B760"/>
<stop offset="1" stop-color="#6BB748"/>
</linearGradient>
<clipPath id="clip0_70_886">
<rect width="62" height="62" fill="white"/>
</clipPath>
</defs>
</svg>
