<svg width="220" height="96" viewBox="0 0 220 96" fill="none" xmlns="http://www.w3.org/2000/svg">
<path d="M36 38H200V74C200 86.1503 190.15 96 178 96H58C45.8497 96 36 86.1503 36 74V38Z" fill="#4B6350"/>
<path d="M83.1777 81H81.9473V76.5088H76.5332V81H75.3027V71.1357H76.5332V75.4014H81.9473V71.1357H83.1777V81ZM85.6318 83.6592C85.4176 83.6592 85.2467 83.6455 85.1191 83.6182V82.6201C85.2285 82.6429 85.3835 82.6543 85.584 82.6543C85.9167 82.6543 86.1833 82.5654 86.3838 82.3877C86.5843 82.2145 86.7529 81.9206 86.8896 81.5059L87.0537 81.0068L84.4287 73.8906H85.7002L87.6689 79.8105H87.6895L89.6582 73.8906H90.9092L88.1133 81.499C87.8079 82.3285 87.4775 82.8958 87.1221 83.2012C86.7712 83.5065 86.2744 83.6592 85.6318 83.6592ZM97.9912 77.2539L101.204 81H99.6797L96.8086 77.582H96.7539V81H95.5781V77.582H95.5303L92.6592 81H91.1553L94.3477 77.2744L91.2305 73.8906H92.6934L95.5303 77.0352H95.5781V73.8906H96.7539V77.0352H96.8086L99.6455 73.8906H101.095L97.9912 77.2539ZM104.861 74.7998C104.31 74.7998 103.852 74.9912 103.487 75.374C103.127 75.7523 102.929 76.2399 102.893 76.8369H106.755C106.741 76.2354 106.561 75.7454 106.215 75.3672C105.868 74.9889 105.417 74.7998 104.861 74.7998ZM106.728 78.9629H107.896C107.792 79.5918 107.464 80.109 106.912 80.5146C106.365 80.9202 105.707 81.123 104.937 81.123C103.92 81.123 103.12 80.7949 102.537 80.1387C101.954 79.4824 101.662 78.5938 101.662 77.4727C101.662 76.3607 101.954 75.4652 102.537 74.7861C103.125 74.1071 103.907 73.7676 104.882 73.7676C105.839 73.7676 106.595 74.0889 107.151 74.7314C107.707 75.374 107.985 76.2354 107.985 77.3154V77.7666H102.886V77.835C102.886 78.5186 103.073 79.0654 103.446 79.4756C103.82 79.8857 104.326 80.0908 104.964 80.0908C105.41 80.0908 105.791 79.9883 106.105 79.7832C106.42 79.5781 106.627 79.3047 106.728 78.9629ZM113.987 81V77.8008H110.48V81H109.305V73.8906H110.48V76.8232H113.987V73.8906H115.163V81H113.987ZM122.081 81.123C121.297 81.123 120.648 80.9453 120.133 80.5898C119.618 80.2298 119.331 79.7513 119.271 79.1543H120.475C120.543 79.4642 120.716 79.7057 120.994 79.8789C121.277 80.0521 121.639 80.1387 122.081 80.1387C122.587 80.1387 122.981 80.0316 123.264 79.8174C123.546 79.5986 123.688 79.3115 123.688 78.9561C123.688 78.5596 123.555 78.2679 123.291 78.0811C123.027 77.8896 122.623 77.7939 122.081 77.7939H121.015V76.8232H122.081C122.993 76.8232 123.448 76.4769 123.448 75.7842C123.448 75.4743 123.334 75.2259 123.106 75.0391C122.883 74.8522 122.55 74.7588 122.108 74.7588C121.689 74.7588 121.343 74.8431 121.069 75.0117C120.796 75.1803 120.634 75.4059 120.584 75.6885H119.429C119.506 75.1006 119.784 74.6335 120.263 74.2871C120.741 73.9408 121.356 73.7676 122.108 73.7676C122.901 73.7676 123.517 73.943 123.954 74.2939C124.392 74.6403 124.61 75.1051 124.61 75.6885C124.61 76.0531 124.501 76.3789 124.282 76.666C124.068 76.9531 123.785 77.1377 123.435 77.2197V77.2744C123.895 77.3747 124.246 77.5684 124.487 77.8555C124.733 78.138 124.856 78.4867 124.856 78.9014C124.856 79.5667 124.601 80.1045 124.091 80.5146C123.585 80.9202 122.915 81.123 122.081 81.123ZM129.095 74.8545H127.393V76.8438H128.917C129.801 76.8438 130.243 76.5065 130.243 75.832C130.243 75.5176 130.145 75.276 129.949 75.1074C129.753 74.9388 129.468 74.8545 129.095 74.8545ZM129.013 77.8008H127.393V80.0361H129.225C129.653 80.0361 129.981 79.9427 130.209 79.7559C130.437 79.5645 130.551 79.2887 130.551 78.9287C130.551 78.1768 130.038 77.8008 129.013 77.8008ZM126.217 81V73.8906H129.259C129.924 73.8906 130.448 74.0524 130.831 74.376C131.214 74.6995 131.405 75.1439 131.405 75.709C131.405 76.069 131.291 76.3971 131.063 76.6934C130.84 76.9896 130.564 77.1719 130.236 77.2402V77.2949C130.683 77.3587 131.041 77.541 131.31 77.8418C131.583 78.1426 131.72 78.514 131.72 78.9561C131.72 79.585 131.501 80.084 131.063 80.4531C130.631 80.8177 130.036 81 129.279 81H126.217ZM136.033 81.123C135.04 81.123 134.242 80.7926 133.641 80.1318C133.039 79.4665 132.738 78.571 132.738 77.4453C132.738 76.3197 133.039 75.4264 133.641 74.7656C134.242 74.1003 135.04 73.7676 136.033 73.7676C137.022 73.7676 137.817 74.1003 138.419 74.7656C139.021 75.4264 139.321 76.3197 139.321 77.4453C139.321 78.5664 139.021 79.4596 138.419 80.125C137.817 80.7904 137.022 81.123 136.033 81.123ZM134.509 79.3799C134.887 79.8447 135.395 80.0771 136.033 80.0771C136.671 80.0771 137.177 79.847 137.551 79.3867C137.924 78.9219 138.111 78.2747 138.111 77.4453C138.111 76.6159 137.924 75.971 137.551 75.5107C137.177 75.0459 136.671 74.8135 136.033 74.8135C135.395 74.8135 134.887 75.0459 134.509 75.5107C134.135 75.9756 133.948 76.6204 133.948 77.4453C133.948 78.2702 134.135 78.915 134.509 79.3799ZM145.323 81V77.8008H141.816V81H140.641V73.8906H141.816V76.8232H145.323V73.8906H146.499V81H145.323ZM151.127 81.123C150.133 81.123 149.336 80.7926 148.734 80.1318C148.133 79.4665 147.832 78.571 147.832 77.4453C147.832 76.3197 148.133 75.4264 148.734 74.7656C149.336 74.1003 150.133 73.7676 151.127 73.7676C152.116 73.7676 152.911 74.1003 153.513 74.7656C154.114 75.4264 154.415 76.3197 154.415 77.4453C154.415 78.5664 154.114 79.4596 153.513 80.125C152.911 80.7904 152.116 81.123 151.127 81.123ZM149.603 79.3799C149.981 79.8447 150.489 80.0771 151.127 80.0771C151.765 80.0771 152.271 79.847 152.645 79.3867C153.018 78.9219 153.205 78.2747 153.205 77.4453C153.205 76.6159 153.018 75.971 152.645 75.5107C152.271 75.0459 151.765 74.8135 151.127 74.8135C150.489 74.8135 149.981 75.0459 149.603 75.5107C149.229 75.9756 149.042 76.6204 149.042 77.4453C149.042 78.2702 149.229 78.915 149.603 79.3799ZM158.147 77.2539L161.565 81H160.034L156.965 77.582H156.91V81H155.734V73.8906H156.91V77.0352H156.965L160 73.8906H161.47L158.147 77.2539Z" fill="white"/>
<g filter="url(#filter0_d_492_18)">
<rect x="20" y="16" width="180" height="44" rx="22" fill="url(#paint0_linear_492_18)"/>
</g>
<g style="mix-blend-mode:overlay" opacity="0.2">
<mask id="mask0_492_18" style="mask-type:alpha" maskUnits="userSpaceOnUse" x="20" y="16" width="180" height="44">
<rect x="20" y="16" width="180" height="44" rx="22" fill="url(#paint1_linear_492_18)"/>
</mask>
<g mask="url(#mask0_492_18)">
<rect x="22.6182" y="15" width="1" height="48" transform="rotate(15 22.6182 15)" fill="black"/>
<rect x="28.8125" y="15" width="1" height="48" transform="rotate(15 28.8125 15)" fill="black"/>
<rect x="35.0073" y="15" width="1" height="48" transform="rotate(15 35.0073 15)" fill="black"/>
<rect x="41.2017" y="15" width="1" height="48" transform="rotate(15 41.2017 15)" fill="black"/>
<rect x="47.3965" y="15" width="1" height="48" transform="rotate(15 47.3965 15)" fill="black"/>
<rect x="53.5913" y="15" width="1" height="48" transform="rotate(15 53.5913 15)" fill="black"/>
<rect x="59.7856" y="15" width="1" height="48" transform="rotate(15 59.7856 15)" fill="black"/>
<rect x="65.9805" y="15" width="1" height="48" transform="rotate(15 65.9805 15)" fill="black"/>
<rect x="72.1753" y="15" width="1" height="48" transform="rotate(15 72.1753 15)" fill="black"/>
<rect x="78.3696" y="15" width="1" height="48" transform="rotate(15 78.3696 15)" fill="black"/>
<rect x="84.5645" y="15" width="1" height="48" transform="rotate(15 84.5645 15)" fill="black"/>
<rect x="90.7588" y="15" width="1" height="48" transform="rotate(15 90.7588 15)" fill="black"/>
<rect x="96.9536" y="15" width="1" height="48" transform="rotate(15 96.9536 15)" fill="black"/>
<rect x="103.148" y="15" width="1" height="48" transform="rotate(15 103.148 15)" fill="black"/>
<rect x="109.343" y="15" width="1" height="48" transform="rotate(15 109.343 15)" fill="black"/>
<rect x="115.538" y="15" width="1" height="48" transform="rotate(15 115.538 15)" fill="black"/>
<rect x="121.732" y="15" width="1" height="48" transform="rotate(15 121.732 15)" fill="black"/>
<rect x="127.927" y="15" width="1" height="48" transform="rotate(15 127.927 15)" fill="black"/>
<rect x="134.122" y="15" width="1" height="48" transform="rotate(15 134.122 15)" fill="black"/>
<rect x="140.316" y="15" width="1" height="48" transform="rotate(15 140.316 15)" fill="black"/>
<rect x="146.511" y="15" width="1" height="48" transform="rotate(15 146.511 15)" fill="black"/>
<rect x="152.706" y="15" width="1" height="48" transform="rotate(15 152.706 15)" fill="black"/>
<rect x="158.9" y="15" width="1" height="48" transform="rotate(15 158.9 15)" fill="black"/>
<rect x="165.095" y="15" width="1" height="48" transform="rotate(15 165.095 15)" fill="black"/>
<rect x="171.29" y="15" width="1" height="48" transform="rotate(15 171.29 15)" fill="black"/>
<rect x="177.484" y="15" width="1" height="48" transform="rotate(15 177.484 15)" fill="black"/>
<rect x="183.679" y="15" width="1" height="48" transform="rotate(15 183.679 15)" fill="black"/>
<rect x="189.873" y="15" width="1" height="48" transform="rotate(15 189.873 15)" fill="black"/>
<rect x="196.068" y="15" width="1" height="48" transform="rotate(15 196.068 15)" fill="black"/>
<rect x="202.263" y="15" width="1" height="48" transform="rotate(15 202.263 15)" fill="black"/>
<rect x="208.457" y="15" width="1" height="48" transform="rotate(15 208.457 15)" fill="black"/>
</g>
</g>
<path d="M48.8936 39.8281V42.8633H47.3555V39.8281H44.5186V38.3105H47.3555V35.3232H48.8936V38.3105H51.7373V39.8281H48.8936ZM53.8154 43L58.1426 34.6123V34.5781H53.0156V33.1357H59.8789V34.6055L55.6611 43H53.8154ZM64.5068 39.124C64.5068 37.9209 64.6686 36.8294 64.9922 35.8496C65.3203 34.8698 65.8239 33.9652 66.5029 33.1357H68.0342C67.5329 33.7191 67.1113 34.5804 66.7695 35.7197C66.4277 36.859 66.2568 37.9915 66.2568 39.1172C66.2568 40.2383 66.4277 41.3708 66.7695 42.5146C67.1113 43.6585 67.5329 44.5244 68.0342 45.1123H66.5029C65.8239 44.2783 65.3203 43.3714 64.9922 42.3916C64.6686 41.4118 64.5068 40.3226 64.5068 39.124ZM72.4639 43.1982C71.557 43.1982 70.7799 42.9521 70.1328 42.46C69.4902 41.9678 69.0983 41.3252 68.957 40.5322H70.707C70.8164 40.9059 71.0329 41.2067 71.3564 41.4346C71.6846 41.6579 72.0628 41.7695 72.4912 41.7695C73.2249 41.7695 73.7946 41.4414 74.2002 40.7852C74.6104 40.1243 74.8086 39.2015 74.7949 38.0166H74.7812H74.7744H74.7676C74.5716 38.5042 74.2344 38.8962 73.7559 39.1924C73.2819 39.484 72.7282 39.6299 72.0947 39.6299C71.1559 39.6299 70.3743 39.32 69.75 38.7002C69.1302 38.0804 68.8203 37.3034 68.8203 36.3691C68.8203 35.3711 69.1667 34.5485 69.8594 33.9014C70.5566 33.2542 71.4385 32.9307 72.5049 32.9307C73.2295 32.9307 73.8743 33.0993 74.4395 33.4365C75.0091 33.7738 75.458 34.2568 75.7861 34.8857C76.2555 35.7015 76.4902 36.7246 76.4902 37.9551C76.4902 39.6003 76.1348 40.8854 75.4238 41.8105C74.7129 42.7357 73.7262 43.1982 72.4639 43.1982ZM72.5117 38.249C73.0768 38.249 73.5485 38.0667 73.9268 37.7021C74.305 37.3376 74.4941 36.8841 74.4941 36.3418C74.4941 35.7904 74.3027 35.3255 73.9199 34.9473C73.5417 34.569 73.0768 34.3799 72.5254 34.3799C71.974 34.3799 71.5068 34.5667 71.124 34.9404C70.7458 35.3141 70.5566 35.7721 70.5566 36.3145C70.5566 36.8704 70.7412 37.333 71.1104 37.7021C71.484 38.0667 71.9512 38.249 72.5117 38.249ZM81.2549 43.1982C80.348 43.1982 79.571 42.9521 78.9238 42.46C78.2812 41.9678 77.8893 41.3252 77.748 40.5322H79.498C79.6074 40.9059 79.8239 41.2067 80.1475 41.4346C80.4756 41.6579 80.8538 41.7695 81.2822 41.7695C82.016 41.7695 82.5856 41.4414 82.9912 40.7852C83.4014 40.1243 83.5996 39.2015 83.5859 38.0166H83.5723H83.5654H83.5586C83.3626 38.5042 83.0254 38.8962 82.5469 39.1924C82.0729 39.484 81.5192 39.6299 80.8857 39.6299C79.9469 39.6299 79.1654 39.32 78.541 38.7002C77.9212 38.0804 77.6113 37.3034 77.6113 36.3691C77.6113 35.3711 77.9577 34.5485 78.6504 33.9014C79.3477 33.2542 80.2295 32.9307 81.2959 32.9307C82.0205 32.9307 82.6654 33.0993 83.2305 33.4365C83.8001 33.7738 84.249 34.2568 84.5771 34.8857C85.0465 35.7015 85.2812 36.7246 85.2812 37.9551C85.2812 39.6003 84.9258 40.8854 84.2148 41.8105C83.5039 42.7357 82.5173 43.1982 81.2549 43.1982ZM81.3027 38.249C81.8678 38.249 82.3395 38.0667 82.7178 37.7021C83.096 37.3376 83.2852 36.8841 83.2852 36.3418C83.2852 35.7904 83.0938 35.3255 82.7109 34.9473C82.3327 34.569 81.8678 34.3799 81.3164 34.3799C80.765 34.3799 80.2979 34.5667 79.915 34.9404C79.5368 35.3141 79.3477 35.7721 79.3477 36.3145C79.3477 36.8704 79.5322 37.333 79.9014 37.7021C80.2751 38.0667 80.7422 38.249 81.3027 38.249ZM90.0459 43.1982C89.139 43.1982 88.362 42.9521 87.7148 42.46C87.0723 41.9678 86.6803 41.3252 86.5391 40.5322H88.2891C88.3984 40.9059 88.6149 41.2067 88.9385 41.4346C89.2666 41.6579 89.6449 41.7695 90.0732 41.7695C90.807 41.7695 91.3766 41.4414 91.7822 40.7852C92.1924 40.1243 92.3906 39.2015 92.377 38.0166H92.3633H92.3564H92.3496C92.1536 38.5042 91.8164 38.8962 91.3379 39.1924C90.8639 39.484 90.3102 39.6299 89.6768 39.6299C88.738 39.6299 87.9564 39.32 87.332 38.7002C86.7122 38.0804 86.4023 37.3034 86.4023 36.3691C86.4023 35.3711 86.7487 34.5485 87.4414 33.9014C88.1387 33.2542 89.0205 32.9307 90.0869 32.9307C90.8115 32.9307 91.4564 33.0993 92.0215 33.4365C92.5911 33.7738 93.04 34.2568 93.3682 34.8857C93.8376 35.7015 94.0723 36.7246 94.0723 37.9551C94.0723 39.6003 93.7168 40.8854 93.0059 41.8105C92.2949 42.7357 91.3083 43.1982 90.0459 43.1982ZM90.0938 38.249C90.6589 38.249 91.1305 38.0667 91.5088 37.7021C91.887 37.3376 92.0762 36.8841 92.0762 36.3418C92.0762 35.7904 91.8848 35.3255 91.502 34.9473C91.1237 34.569 90.6589 34.3799 90.1074 34.3799C89.556 34.3799 89.0889 34.5667 88.7061 34.9404C88.3278 35.3141 88.1387 35.7721 88.1387 36.3145C88.1387 36.8704 88.3232 37.333 88.6924 37.7021C89.0661 38.0667 89.5332 38.249 90.0938 38.249ZM98.4404 39.124C98.4404 40.4593 98.2627 41.6032 97.9072 42.5557C97.5518 43.5081 97.0641 44.3604 96.4443 45.1123H94.9131C95.109 44.8799 95.305 44.5745 95.501 44.1963C95.7015 43.818 95.8929 43.376 96.0752 42.8701C96.2575 42.3643 96.4056 41.7809 96.5195 41.1201C96.6335 40.4593 96.6904 39.7917 96.6904 39.1172C96.6904 38.4382 96.6335 37.7705 96.5195 37.1143C96.4056 36.4535 96.2575 35.8724 96.0752 35.3711C95.8929 34.8652 95.7015 34.4232 95.501 34.0449C95.305 33.6667 95.109 33.3636 94.9131 33.1357H96.4443C96.8408 33.6188 97.1758 34.1178 97.4492 34.6328C97.7272 35.1432 97.9619 35.7904 98.1533 36.5742C98.3447 37.3535 98.4404 38.2035 98.4404 39.124ZM106.685 43.1982C105.778 43.1982 105.001 42.9521 104.354 42.46C103.711 41.9678 103.319 41.3252 103.178 40.5322H104.928C105.037 40.9059 105.254 41.2067 105.577 41.4346C105.905 41.6579 106.284 41.7695 106.712 41.7695C107.446 41.7695 108.015 41.4414 108.421 40.7852C108.831 40.1243 109.029 39.2015 109.016 38.0166H109.002H108.995H108.988C108.792 38.5042 108.455 38.8962 107.977 39.1924C107.503 39.484 106.949 39.6299 106.315 39.6299C105.377 39.6299 104.595 39.32 103.971 38.7002C103.351 38.0804 103.041 37.3034 103.041 36.3691C103.041 35.3711 103.387 34.5485 104.08 33.9014C104.777 33.2542 105.659 32.9307 106.726 32.9307C107.45 32.9307 108.095 33.0993 108.66 33.4365C109.23 33.7738 109.679 34.2568 110.007 34.8857C110.476 35.7015 110.711 36.7246 110.711 37.9551C110.711 39.6003 110.355 40.8854 109.645 41.8105C108.934 42.7357 107.947 43.1982 106.685 43.1982ZM106.732 38.249C107.298 38.249 107.769 38.0667 108.147 37.7021C108.526 37.3376 108.715 36.8841 108.715 36.3418C108.715 35.7904 108.523 35.3255 108.141 34.9473C107.762 34.569 107.298 34.3799 106.746 34.3799C106.195 34.3799 105.728 34.5667 105.345 34.9404C104.966 35.3141 104.777 35.7721 104.777 36.3145C104.777 36.8704 104.962 37.333 105.331 37.7021C105.705 38.0667 106.172 38.249 106.732 38.249ZM115.476 43.1982C114.569 43.1982 113.792 42.9521 113.145 42.46C112.502 41.9678 112.11 41.3252 111.969 40.5322H113.719C113.828 40.9059 114.045 41.2067 114.368 41.4346C114.696 41.6579 115.075 41.7695 115.503 41.7695C116.237 41.7695 116.806 41.4414 117.212 40.7852C117.622 40.1243 117.82 39.2015 117.807 38.0166H117.793H117.786H117.779C117.583 38.5042 117.246 38.8962 116.768 39.1924C116.294 39.484 115.74 39.6299 115.106 39.6299C114.168 39.6299 113.386 39.32 112.762 38.7002C112.142 38.0804 111.832 37.3034 111.832 36.3691C111.832 35.3711 112.178 34.5485 112.871 33.9014C113.568 33.2542 114.45 32.9307 115.517 32.9307C116.241 32.9307 116.886 33.0993 117.451 33.4365C118.021 33.7738 118.47 34.2568 118.798 34.8857C119.267 35.7015 119.502 36.7246 119.502 37.9551C119.502 39.6003 119.146 40.8854 118.436 41.8105C117.725 42.7357 116.738 43.1982 115.476 43.1982ZM115.523 38.249C116.089 38.249 116.56 38.0667 116.938 37.7021C117.317 37.3376 117.506 36.8841 117.506 36.3418C117.506 35.7904 117.314 35.3255 116.932 34.9473C116.553 34.569 116.089 34.3799 115.537 34.3799C114.986 34.3799 114.519 34.5667 114.136 34.9404C113.757 35.3141 113.568 35.7721 113.568 36.3145C113.568 36.8704 113.753 37.333 114.122 37.7021C114.496 38.0667 114.963 38.249 115.523 38.249ZM124.267 43.1982C123.36 43.1982 122.583 42.9521 121.936 42.46C121.293 41.9678 120.901 41.3252 120.76 40.5322H122.51C122.619 40.9059 122.836 41.2067 123.159 41.4346C123.487 41.6579 123.866 41.7695 124.294 41.7695C125.028 41.7695 125.597 41.4414 126.003 40.7852C126.413 40.1243 126.611 39.2015 126.598 38.0166H126.584H126.577H126.57C126.374 38.5042 126.037 38.8962 125.559 39.1924C125.085 39.484 124.531 39.6299 123.897 39.6299C122.959 39.6299 122.177 39.32 121.553 38.7002C120.933 38.0804 120.623 37.3034 120.623 36.3691C120.623 35.3711 120.969 34.5485 121.662 33.9014C122.359 33.2542 123.241 32.9307 124.308 32.9307C125.032 32.9307 125.677 33.0993 126.242 33.4365C126.812 33.7738 127.261 34.2568 127.589 34.8857C128.058 35.7015 128.293 36.7246 128.293 37.9551C128.293 39.6003 127.938 40.8854 127.227 41.8105C126.516 42.7357 125.529 43.1982 124.267 43.1982ZM124.314 38.249C124.88 38.249 125.351 38.0667 125.729 37.7021C126.108 37.3376 126.297 36.8841 126.297 36.3418C126.297 35.7904 126.105 35.3255 125.723 34.9473C125.344 34.569 124.88 34.3799 124.328 34.3799C123.777 34.3799 123.31 34.5667 122.927 34.9404C122.549 35.3141 122.359 35.7721 122.359 36.3145C122.359 36.8704 122.544 37.333 122.913 37.7021C123.287 38.0667 123.754 38.249 124.314 38.249ZM134.186 39.7529H129.694V38.2354H134.186V39.7529ZM139.183 43.1982C138.276 43.1982 137.499 42.9521 136.852 42.46C136.209 41.9678 135.817 41.3252 135.676 40.5322H137.426C137.535 40.9059 137.752 41.2067 138.075 41.4346C138.403 41.6579 138.782 41.7695 139.21 41.7695C139.944 41.7695 140.513 41.4414 140.919 40.7852C141.329 40.1243 141.527 39.2015 141.514 38.0166H141.5H141.493H141.486C141.29 38.5042 140.953 38.8962 140.475 39.1924C140.001 39.484 139.447 39.6299 138.813 39.6299C137.875 39.6299 137.093 39.32 136.469 38.7002C135.849 38.0804 135.539 37.3034 135.539 36.3691C135.539 35.3711 135.885 34.5485 136.578 33.9014C137.275 33.2542 138.157 32.9307 139.224 32.9307C139.948 32.9307 140.593 33.0993 141.158 33.4365C141.728 33.7738 142.177 34.2568 142.505 34.8857C142.974 35.7015 143.209 36.7246 143.209 37.9551C143.209 39.6003 142.854 40.8854 142.143 41.8105C141.432 42.7357 140.445 43.1982 139.183 43.1982ZM139.23 38.249C139.796 38.249 140.267 38.0667 140.646 37.7021C141.024 37.3376 141.213 36.8841 141.213 36.3418C141.213 35.7904 141.021 35.3255 140.639 34.9473C140.26 34.569 139.796 34.3799 139.244 34.3799C138.693 34.3799 138.226 34.5667 137.843 34.9404C137.465 35.3141 137.275 35.7721 137.275 36.3145C137.275 36.8704 137.46 37.333 137.829 37.7021C138.203 38.0667 138.67 38.249 139.23 38.249ZM147.974 43.1982C147.067 43.1982 146.29 42.9521 145.643 42.46C145 41.9678 144.608 41.3252 144.467 40.5322H146.217C146.326 40.9059 146.543 41.2067 146.866 41.4346C147.194 41.6579 147.573 41.7695 148.001 41.7695C148.735 41.7695 149.304 41.4414 149.71 40.7852C150.12 40.1243 150.318 39.2015 150.305 38.0166H150.291H150.284H150.277C150.081 38.5042 149.744 38.8962 149.266 39.1924C148.792 39.484 148.238 39.6299 147.604 39.6299C146.666 39.6299 145.884 39.32 145.26 38.7002C144.64 38.0804 144.33 37.3034 144.33 36.3691C144.33 35.3711 144.676 34.5485 145.369 33.9014C146.066 33.2542 146.948 32.9307 148.015 32.9307C148.739 32.9307 149.384 33.0993 149.949 33.4365C150.519 33.7738 150.968 34.2568 151.296 34.8857C151.765 35.7015 152 36.7246 152 37.9551C152 39.6003 151.645 40.8854 150.934 41.8105C150.223 42.7357 149.236 43.1982 147.974 43.1982ZM148.021 38.249C148.587 38.249 149.058 38.0667 149.437 37.7021C149.815 37.3376 150.004 36.8841 150.004 36.3418C150.004 35.7904 149.812 35.3255 149.43 34.9473C149.051 34.569 148.587 34.3799 148.035 34.3799C147.484 34.3799 147.017 34.5667 146.634 34.9404C146.256 35.3141 146.066 35.7721 146.066 36.3145C146.066 36.8704 146.251 37.333 146.62 37.7021C146.994 38.0667 147.461 38.249 148.021 38.249ZM157.893 39.7529H153.401V38.2354H157.893V39.7529ZM162.89 43.1982C161.983 43.1982 161.206 42.9521 160.559 42.46C159.916 41.9678 159.524 41.3252 159.383 40.5322H161.133C161.242 40.9059 161.459 41.2067 161.782 41.4346C162.11 41.6579 162.489 41.7695 162.917 41.7695C163.651 41.7695 164.22 41.4414 164.626 40.7852C165.036 40.1243 165.234 39.2015 165.221 38.0166H165.207H165.2H165.193C164.997 38.5042 164.66 38.8962 164.182 39.1924C163.708 39.484 163.154 39.6299 162.521 39.6299C161.582 39.6299 160.8 39.32 160.176 38.7002C159.556 38.0804 159.246 37.3034 159.246 36.3691C159.246 35.3711 159.592 34.5485 160.285 33.9014C160.982 33.2542 161.864 32.9307 162.931 32.9307C163.655 32.9307 164.3 33.0993 164.865 33.4365C165.435 33.7738 165.884 34.2568 166.212 34.8857C166.681 35.7015 166.916 36.7246 166.916 37.9551C166.916 39.6003 166.561 40.8854 165.85 41.8105C165.139 42.7357 164.152 43.1982 162.89 43.1982ZM162.938 38.249C163.503 38.249 163.974 38.0667 164.353 37.7021C164.731 37.3376 164.92 36.8841 164.92 36.3418C164.92 35.7904 164.729 35.3255 164.346 34.9473C163.967 34.569 163.503 34.3799 162.951 34.3799C162.4 34.3799 161.933 34.5667 161.55 34.9404C161.172 35.3141 160.982 35.7721 160.982 36.3145C160.982 36.8704 161.167 37.333 161.536 37.7021C161.91 38.0667 162.377 38.249 162.938 38.249ZM171.681 43.1982C170.774 43.1982 169.997 42.9521 169.35 42.46C168.707 41.9678 168.315 41.3252 168.174 40.5322H169.924C170.033 40.9059 170.25 41.2067 170.573 41.4346C170.901 41.6579 171.28 41.7695 171.708 41.7695C172.442 41.7695 173.011 41.4414 173.417 40.7852C173.827 40.1243 174.025 39.2015 174.012 38.0166H173.998H173.991H173.984C173.788 38.5042 173.451 38.8962 172.973 39.1924C172.499 39.484 171.945 39.6299 171.312 39.6299C170.373 39.6299 169.591 39.32 168.967 38.7002C168.347 38.0804 168.037 37.3034 168.037 36.3691C168.037 35.3711 168.383 34.5485 169.076 33.9014C169.773 33.2542 170.655 32.9307 171.722 32.9307C172.446 32.9307 173.091 33.0993 173.656 33.4365C174.226 33.7738 174.675 34.2568 175.003 34.8857C175.472 35.7015 175.707 36.7246 175.707 37.9551C175.707 39.6003 175.352 40.8854 174.641 41.8105C173.93 42.7357 172.943 43.1982 171.681 43.1982ZM171.729 38.249C172.294 38.249 172.765 38.0667 173.144 37.7021C173.522 37.3376 173.711 36.8841 173.711 36.3418C173.711 35.7904 173.52 35.3255 173.137 34.9473C172.758 34.569 172.294 34.3799 171.742 34.3799C171.191 34.3799 170.724 34.5667 170.341 34.9404C169.963 35.3141 169.773 35.7721 169.773 36.3145C169.773 36.8704 169.958 37.333 170.327 37.7021C170.701 38.0667 171.168 38.249 171.729 38.249Z" fill="white"/>
<defs>
<filter id="filter0_d_492_18" x="0" y="0" width="220" height="84" filterUnits="userSpaceOnUse" color-interpolation-filters="sRGB">
<feFlood flood-opacity="0" result="BackgroundImageFix"/>
<feColorMatrix in="SourceAlpha" type="matrix" values="0 0 0 0 0 0 0 0 0 0 0 0 0 0 0 0 0 0 127 0" result="hardAlpha"/>
<feOffset dy="4"/>
<feGaussianBlur stdDeviation="10"/>
<feColorMatrix type="matrix" values="0 0 0 0 0.450333 0 0 0 0 0.804167 0 0 0 0 0 0 0 0 0.1 0"/>
<feBlend mode="normal" in2="BackgroundImageFix" result="effect1_dropShadow_492_18"/>
<feBlend mode="normal" in="SourceGraphic" in2="effect1_dropShadow_492_18" result="shape"/>
</filter>
<linearGradient id="paint0_linear_492_18" x1="20" y1="16" x2="194.663" y2="75.6324" gradientUnits="userSpaceOnUse">
<stop stop-color="#48B760"/>
<stop offset="1" stop-color="#6BB748"/>
</linearGradient>
<linearGradient id="paint1_linear_492_18" x1="20" y1="16" x2="194.663" y2="75.6324" gradientUnits="userSpaceOnUse">
<stop stop-color="#48B760"/>
<stop offset="1" stop-color="#6BB748"/>
</linearGradient>
</defs>
</svg>
