<svg width="24" height="24" viewBox="0 0 24 24" fill="none" xmlns="http://www.w3.org/2000/svg">
<path d="M24 12C24 14.3734 23.2962 16.6935 21.9776 18.6668C20.6591 20.6402 18.7849 22.1783 16.5922 23.0866C14.3995 23.9948 11.9867 24.2324 9.65892 23.7694C7.33114 23.3064 5.19295 22.1635 3.51472 20.4853C1.83649 18.8071 0.693599 16.6689 0.230577 14.3411C-0.232446 12.0133 0.00519403 9.60051 0.913446 7.4078C1.8217 5.21509 3.35977 3.34094 5.33316 2.02236C7.30655 0.703788 9.62662 -2.83022e-08 12 0V12H24Z" fill="#A1B748"/>
<path d="M21.1199 12C21.1199 9.89004 20.3883 7.84536 19.0497 6.21434C17.7112 4.58332 15.8485 3.46688 13.7791 3.05524C11.7097 2.64361 9.56156 2.96225 7.70075 3.95688C5.83993 4.95151 4.38155 6.56058 3.5741 8.50993C2.76665 10.4593 2.6601 12.6283 3.27259 14.6474C3.88508 16.6665 5.17871 18.4108 6.93308 19.583C8.68745 20.7552 10.794 21.2829 12.8938 21.0761C14.9936 20.8693 16.9567 19.9408 18.4487 18.4488L11.9999 12H21.1199Z" fill="#4F4F4F"/>
<path d="M24 12C24 14.3734 23.2962 16.6935 21.9776 18.6668C20.6591 20.6402 18.7849 22.1783 16.5922 23.0866C14.3995 23.9948 11.9867 24.2324 9.65892 23.7694C7.33114 23.3064 5.19295 22.1635 3.51472 20.4853C1.83649 18.8071 0.693599 16.6689 0.230577 14.3411C-0.232446 12.0133 0.00519403 9.60051 0.913446 7.4078C1.8217 5.21509 3.35977 3.34094 5.33316 2.02236C7.30655 0.703788 9.62662 -2.83022e-08 12 0V12H24Z" fill="url(#paint0_linear_70_616)"/>
<defs>
<linearGradient id="paint0_linear_70_616" x1="12" y1="0" x2="12" y2="24" gradientUnits="userSpaceOnUse">
<stop stop-color="#48B760"/>
<stop offset="1" stop-color="#6BB748" stop-opacity="0.63"/>
</linearGradient>
</defs>
</svg>
