<svg width="22" height="16" viewBox="0 0 22 16" fill="none" xmlns="http://www.w3.org/2000/svg">
<path d="M21.0576 2.9449C20.9381 2.50093 20.7041 2.09614 20.379 1.77103C20.0538 1.44592 19.649 1.2119 19.2051 1.0924C17.5701 0.649902 11.0001 0.649902 11.0001 0.649902C11.0001 0.649902 4.43008 0.649902 2.79508 1.0924C2.35111 1.2119 1.94631 1.44592 1.6212 1.77103C1.29609 2.09614 1.06208 2.50093 0.942576 2.9449C0.637285 4.61235 0.489136 6.30477 0.500076 7.9999C0.489136 9.69503 0.637285 11.3875 0.942576 13.0549C1.06208 13.4989 1.29609 13.9037 1.6212 14.2288C1.94631 14.5539 2.35111 14.7879 2.79508 14.9074C4.43008 15.3499 11.0001 15.3499 11.0001 15.3499C11.0001 15.3499 17.5701 15.3499 19.2051 14.9074C19.649 14.7879 20.0538 14.5539 20.379 14.2288C20.7041 13.9037 20.9381 13.4989 21.0576 13.0549C21.3629 11.3875 21.511 9.69503 21.5001 7.9999C21.511 6.30477 21.3629 4.61235 21.0576 2.9449ZM8.90008 11.1499V4.8499L14.3526 7.9999L8.90008 11.1499Z" fill="white"/>
</svg>
